/* XPM */
static char * ET_xpm[] = {
"22 22 137 2",
"  	c None",
". 	c #020202",
"+ 	c #000000",
"@ 	c #BFBFBF",
"# 	c #B5B5B5",
"$ 	c #BEBEBE",
"% 	c #1A1B1B",
"& 	c #FFFFFF",
"* 	c #FFF2F2",
"= 	c #121717",
"- 	c #9EB0B0",
"; 	c #92A4A4",
"> 	c #92A5A5",
", 	c #404B4B",
"' 	c #EFFCFC",
") 	c #FE0000",
"! 	c #FF7373",
"~ 	c #FDD0D0",
"{ 	c #FF0000",
"] 	c #FF0101",
"^ 	c #FF5F5F",
"/ 	c #FFD1D1",
"( 	c #0B1010",
"_ 	c #E4FEFE",
": 	c #FE7777",
"< 	c #FF7F7F",
"[ 	c #FF8888",
"} 	c #FF1E1E",
"| 	c #8C7878",
"1 	c #FEFBFB",
"2 	c #FFFDFD",
"3 	c #AFAEAE",
"4 	c #C6CBCB",
"5 	c #424343",
"6 	c #E17676",
"7 	c #FF5D5D",
"8 	c #FF4949",
"9 	c #FF2727",
"0 	c #E47979",
"a 	c #282929",
"b 	c #CACACA",
"c 	c #4C4D4D",
"d 	c #111313",
"e 	c #718080",
"f 	c #FF1919",
"g 	c #FF4F4F",
"h 	c #FF3232",
"i 	c #313232",
"j 	c #A9A9A9",
"k 	c #9B9B9B",
"l 	c #9E9E9E",
"m 	c #576464",
"n 	c #586565",
"o 	c #8C8C8C",
"p 	c #9C9C9C",
"q 	c #ABABAB",
"r 	c #C9C9C9",
"s 	c #C0C0C0",
"t 	c #C1C1C1",
"u 	c #C5C5C5",
"v 	c #546161",
"w 	c #FF5555",
"x 	c #FF3636",
"y 	c #596666",
"z 	c #848484",
"A 	c #C4C4C4",
"B 	c #C7C7C7",
"C 	c #FF0505",
"D 	c #FF0909",
"E 	c #FF1515",
"F 	c #5B6868",
"G 	c #868686",
"H 	c #C8C8C8",
"I 	c #BCBCBC",
"J 	c #232323",
"K 	c #536060",
"L 	c #FF0808",
"M 	c #FF2C2C",
"N 	c #FF2626",
"O 	c #FF2424",
"P 	c #ECB6B6",
"Q 	c #111111",
"R 	c #242424",
"S 	c #BABABA",
"T 	c #7B7B7B",
"U 	c #F4F4F4",
"V 	c #EFEEEE",
"W 	c #E7F2F2",
"X 	c #E7F8F8",
"Y 	c #E71818",
"Z 	c #E7FFFF",
"` 	c #E7F1F1",
" .	c #E8E7E7",
"..	c #F3F3F3",
"+.	c #7C7C7C",
"@.	c #A4A4A4",
"#.	c #454545",
"$.	c #838383",
"%.	c #060606",
"&.	c #646464",
"*.	c #FDFDFD",
"=.	c #484848",
"-.	c #181818",
";.	c #2B2B2B",
">.	c #696969",
",.	c #3F3F3F",
"'.	c #1F1F1F",
").	c #505050",
"!.	c #1A1A1A",
"~.	c #585858",
"{.	c #ACACAC",
"].	c #C3C3C3",
"^.	c #606060",
"/.	c #F9F9F9",
"(.	c #B0B0B0",
"_.	c #A8A8A8",
":.	c #252525",
"<.	c #4F4F4F",
"[.	c #191919",
"}.	c #616161",
"|.	c #3C3C3C",
"1.	c #9D9D9D",
"2.	c #A0A0A0",
"3.	c #737373",
"4.	c #2C2C2C",
"5.	c #0F0F0F",
"6.	c #636363",
"7.	c #D4D4D4",
"8.	c #404040",
"9.	c #474747",
"0.	c #333333",
"a.	c #373737",
"b.	c #EBEBEB",
"c.	c #434343",
"d.	c #CBCBCB",
"e.	c #565656",
"f.	c #929292",
"                                            ",
"  . + + + + + + + + + + + + + + + + + + .   ",
"  + @ # # # # $ % & * * & % $ # # # # @ +   ",
"= - ; > > > > , ' ) ! ! ) ' , > > > > ; - = ",
"~ { ] ] ] ] { ^ & ) / / ) & ^ { ] ] ] ] { ~ ",
"( _ : < < [ { { { } | | } { { { [ < < : _ ( ",
"  + & 1 2 2 2 2 2 3 4 4 3 2 2 2 2 2 1 & +   ",
"  + 5 6 7 7 7 7 ) 8 9 9 8 ) 7 7 7 7 0 a +   ",
"  + b c d d d e f g h h g f e d d d i $ +   ",
"  + b j k k l m f g h h g f n o p k q b +   ",
"  + r s t t u v f w x x w f y z u t s r +   ",
"  + r s s A B v f { { C D E F G H s s r +   ",
"  + r s I J J K L M N O x P + Q R I s r +   ",
"  + r s S T U V W X Y Z `  .U ..+.S s r +   ",
"  + r s S z + + + + + + + + + @.#.I s r +   ",
"  + r s S $.%.&.& & *.& =.-.& + q s s r +   ",
"  + r s S $.%.;.>.S ,.'.).!.~.{.].@ s r +   ",
"  + r s S $.%.^./.(._.:.<.[.}.A @ s s r +   ",
"  + r s S $.%.|.1.2.3.4.).5.6.A s s s r +   ",
"  + 7.r A $.+ + + 8.9.0.a.b.c.d.r r r 7.+   ",
"  . + + + e.].A A G + + f.+ + + + + + + .   ",
"                                            "};
